<svg width="512" height="512" fill="none" xmlns="http://www.w3.org/2000/svg"><rect width="512" height="512" rx="256" fill="#759454"/><path d="M117.272 453.026V328.421c-4.713-2.652-11.311-9.191 0-14.14-10.015-6.775-24.037-23.684 0-37.117l5.303-3.534 7.07-8.838 7.069-8.837 3.535-6.186.884-2.651v-11.489h-2.651v-2.651h2.651v-36.233h-15.907v-4.418h15.907V169.35h3.535" stroke="#fff" stroke-width="5"/><path d="M117.272 453.026V328.421c-4.713-2.652-11.311-9.191 0-14.14-10.015-6.775-24.037-23.684 0-37.117l5.303-3.534 7.07-8.838 7.069-8.837 3.535-6.186.884-2.651v-11.489h-2.651v-2.651h2.651v-36.233h-15.907v-4.418h15.907V169.35h3.535M214.293 379.677v-63.992c-7.784-4.295-18.682-14.888 0-22.905-16.541-10.976-39.698-38.367 0-60.127l8.757-5.726 11.676-14.316 11.676-14.316 5.837-10.021 1.46-4.295v-18.61h-4.379v-4.295h4.379v-58.695h-26.271v-7.158h26.271V58h5.838M341.74 379.677v-51.256c-4.713-2.652-11.311-9.191 0-14.14-10.015-6.775-24.037-23.684 0-37.117l5.303-3.534 7.07-8.838 7.07-8.837 3.535-6.186.883-2.651v-11.489h-2.651v-2.651h2.651v-36.233h-15.907v-4.418h15.907V169.35h3.535" stroke="#fff" stroke-width="5"/><path d="M170.265 379.677v-51.256c4.714-2.652 11.313-9.191 0-14.14 10.016-6.775 24.038-23.684 0-37.117l-5.302-3.534-7.07-8.838-7.07-8.837-3.535-6.186-.884-2.651v-11.489h2.651v-2.651h-2.651v-36.233h15.908v-4.418h-15.908V169.35h-3.535M299.475 378.793v-62.804c7.784-4.3 18.681-14.906 0-22.932 16.541-10.989 39.698-38.412 0-60.198l-8.757-5.733-11.676-14.333-11.676-14.332-5.838-10.033-1.459-4.3v-18.633h4.378v-4.299h-4.378v-58.765h26.27v-7.166h-26.27V58h-5.838M394.727 453.91V328.421c4.714-2.652 11.312-9.191 0-14.14 10.016-6.775 24.038-23.684 0-37.117l-5.302-3.534-7.07-8.838-7.07-8.837-3.535-6.186-.884-2.651v-11.489h2.651v-2.651h-2.651v-36.233h15.907v-4.418h-15.907V169.35h-3.535M116.372 453.023h279.63M170.273 378.79h43.303M298.623 378.79h43.097" stroke="#fff" stroke-width="5"/></svg>