<svg width="50" height="50" fill="none" xmlns="http://www.w3.org/2000/svg"><rect width="50" height="50" rx="25" fill="#7C509A"/><path d="M32.817 11.932a38.728 38.728 0 0 0-14.476 0c-2.107.455-4.764 3.003-5.223 5.005a28.583 28.583 0 0 0 0 11.828c.55 2.001 3.207 4.549 5.223 5.004.092 0 .183.09.183.182v5.732c0 .273.367.455.55.182l2.749-2.82s2.199-2.275 2.565-2.64c0 0 .092-.09.183-.09 2.749.09 5.59-.182 8.338-.637 2.107-.455 4.764-3.003 5.223-5.004a28.583 28.583 0 0 0 0-11.828c-.55-1.911-3.207-4.459-5.315-4.914zm.092 17.106c-.458.91-1.008 1.637-1.924 2.092l-.825.273c-.366-.09-.641-.182-.916-.273-2.932-1.182-5.68-2.82-7.88-5.186-1.19-1.365-2.198-2.911-3.023-4.55-.367-.818-.733-1.546-1.008-2.365-.275-.728.183-1.456.642-2.001.458-.546 1.007-.91 1.649-1.183.458-.273.916-.091 1.282.273.733.91 1.466 1.82 2.016 2.82.367.637.275 1.365-.366 1.82-.184.091-.275.182-.459.364-.091.09-.274.182-.366.364-.183.273-.183.546-.092.819.733 2.092 2.108 3.73 4.215 4.64.367.182.641.273 1.1.273.64-.091.916-.819 1.374-1.183.458-.364 1.008-.364 1.558-.09.458.272.916.636 1.465 1 .459.364.917.637 1.375 1 .275.183.366.638.183 1.093zm-3.848-6.824c-.183 0-.092 0 0 0-.367 0-.458-.182-.55-.455 0-.182 0-.455-.091-.637-.092-.364-.275-.728-.642-1l-.55-.274c-.275-.09-.458-.09-.733-.09-.274-.092-.366-.274-.366-.547 0-.182.275-.364.458-.364 1.466.091 2.566.91 2.749 2.639v.364c0 .182-.092.364-.275.364zm-.916-4.004c-.459-.182-.917-.364-1.466-.454-.184 0-.458-.091-.642-.091-.275 0-.458-.182-.366-.455 0-.273.183-.455.458-.364.916.09 1.74.273 2.565.637 1.65.818 2.566 2.183 2.84 4.003v1.183c-.09.364-.732.455-.824 0 0-.091-.091-.273-.091-.364 0-.82-.184-1.638-.55-2.366-.55-.819-1.191-1.365-1.924-1.729zm4.947 5.46c-.275 0-.458-.273-.458-.546 0-.546-.092-1.092-.183-1.638-.367-2.912-2.749-5.277-5.59-5.732-.457-.091-.915-.091-1.282-.182-.275 0-.641 0-.733-.364-.091-.273.183-.546.458-.546h.184c3.756.09.183 0 0 0 3.848.09 7.054 2.638 7.696 6.46.092.637.183 1.274.183 2.002.183.273 0 .546-.275.546z" fill="#fff"/></svg>