<svg width="512" height="512" fill="none" xmlns="http://www.w3.org/2000/svg"><mask id="a" style="mask-type:alpha" maskUnits="userSpaceOnUse" x="0" y="0" width="512" height="512"><circle cx="256" cy="256" r="256" fill="#759454"/></mask><g mask="url(#a)"><circle cx="256" cy="256" r="256" fill="#759454"/><path d="M354.347 478.045 350.5 500.5v.5l-.5.5-1 .5-2.5 1-6 2-11 4-23.5 6-25.5 3-25 1.5-13-1-7-.5-6-.5L217 516l-12-2-12-3-7-2-5-1.5-6-2-6-2-10.51-4v-21.455c-17.93-7.367-43.032-25.54 0-39.293-38.101-18.828-91.442-65.815 0-103.144l20.171-9.823 53.79-49.116 13.447-17.191 3.362-7.367v-31.925h-10.086v-7.368h10.086V112.13h-60.513V99.851h60.513V36h14.024v63.851h60.709v12.279h-60.709v100.688h10.118v7.368h-10.118v31.925l3.373 7.367 13.491 17.191 53.963 49.116 20.236 9.823c91.737 37.329 38.224 84.316 0 103.144 43.171 13.753 17.988 31.926 0 39.293Z" fill="#fff"/></g></svg>