<svg width="516" height="51" fill="none" xmlns="http://www.w3.org/2000/svg"><path d="M2.659 50.378V34.802c-.59-.331-1.414-1.148 0-1.767-1.252-.847-3.005-2.96 0-4.64l.663-.442.884-1.104.883-1.105.442-.773.11-.331v-1.437h-.33v-.33h.33v-4.53H3.654v-.552h1.989v-2.872h.441" stroke="#fff"/><path d="M2.659 50.378V34.802c-.59-.331-1.414-1.148 0-1.767-1.252-.847-3.005-2.96 0-4.64l.663-.442.884-1.104.883-1.105.442-.773.11-.331v-1.437h-.33v-.33h.33v-4.53H3.654v-.552h1.989v-2.872h.441M14.787 41.21v-8c-.974-.537-2.336-1.86 0-2.863-2.068-1.372-4.963-4.796 0-7.516l1.094-.715 1.46-1.79 1.46-1.79.729-1.252.182-.537v-2.326h-.547v-.537h.547V6.547h-3.284v-.894h3.284V1h.73M30.717 41.21v-6.408c-.589-.331-1.414-1.148 0-1.767-1.252-.847-3.005-2.96 0-4.64l.663-.442.884-1.104.883-1.105.442-.773.11-.331v-1.437h-.33v-.33h.33v-4.53h-1.988v-.552H33.7v-2.872h.442" stroke="#fff"/><path d="M9.283 41.21v-6.408c.589-.331 1.414-1.148 0-1.767 1.252-.847 3.005-2.96 0-4.64l-.663-.442-.884-1.104-.883-1.105-.442-.773-.11-.331v-1.437h.33v-.33h-.33v-4.53h1.988v-.552H6.3v-2.872h-.442M25.435 41.099v-7.85c.973-.538 2.335-1.864 0-2.867 2.067-1.374 4.962-4.802 0-7.525l-1.095-.716-1.46-1.792-1.459-1.791-.73-1.255-.182-.537v-2.33h.547V13.9h-.547V6.554h3.284v-.896h-3.284V1h-.73M37.34 50.488V34.802c.59-.331 1.415-1.148 0-1.767 1.253-.847 3.006-2.96 0-4.64l-.662-.442-.884-1.104-.883-1.105-.442-.773-.11-.331v-1.437h.33v-.33h-.33v-4.53h1.988v-.552h-1.989v-2.872h-.442M2.547 50.378H37.5M9.285 41.099h5.413M25.328 41.099h5.387" stroke="#fff"/><path d="M65.488 20.047v-16.7l1.02-.492v-.808h-7.805v.808l1.617.493v45.351l-1.617.492V50h7.805v-.809l-1.02-.492V23.492l4.535-8.05v33.257l-1.02.492V50h7.77v-.809l-1.582-.492V3.348l1.582-.493v-.808h-7.77v.808l1.02.493v8.508l-4.535 8.19zm22.355 5.625V13.578l.774-.457v-.562H82.57v.562l1.23.457v35.403l-1.23.456V50h6.047v-.563l-.774-.456v-16.7c.82 1.36 1.993 2.344 3.516 2.953V48.98l-.773.528V50h6.046v-.563l-1.23-.456V35.444c.328 0 .668-.093 1.02-.28l-.387-.774a6.74 6.74 0 0 1-2.145.351c-1.64 0-3.035-.527-4.183-1.582-1.242-1.054-1.864-2.45-1.864-4.183 0-1.688.621-3.082 1.864-4.184 1.148-1.055 2.543-1.582 4.183-1.582.82.047 1.535.187 2.145.422l.387-.703a5.779 5.779 0 0 0-1.02-.352v-8.93l1.23-.421v-.668h-6.046v.562l.773.527v9.141c-1.523.563-2.695 1.523-3.516 2.883zm27.77 5.555c0-1.782-.352-4.043-1.055-6.786l-2.18-8.261c-.281-1.078-.422-1.899-.422-2.461-.046-.633.164-.996.633-1.09v-.563c-1.711.188-3.176.832-4.394 1.934-1.289 1.148-2.321 2.637-3.094 4.465-1.57 3.797-2.356 7.945-2.356 12.445 0 2.367.411 5.04 1.231 8.016l2.144 8.261c.188.774.282 1.395.282 1.864 0 .726-.211 1.113-.633 1.16v.492c2.016-.469 3.644-1.348 4.887-2.637 1.289-1.265 2.296-2.8 3.023-4.605 1.336-3.89 1.981-7.969 1.934-12.234zm-6.61-16.559c-.234.75-.351 1.676-.351 2.777 0 .82.07 1.594.211 2.32l2.953 12.973c.328 1.57.515 3.75.562 6.54 0 1.57-.234 3.175-.703 4.816-.492 1.687-1.289 3.035-2.39 4.043a7.36 7.36 0 0 0 .421-2.532c0-.867-.211-2.261-.632-4.183l-2.391-10.371a37.894 37.894 0 0 1-.703-7.313c0-3.843 1.008-6.867 3.023-9.07zm17.996-1.09.773-.457v-.562h-6.046v.562l1.23.457v35.403l-1.23.456V50h6.046v-.563l-.773-.456V23l3.516 6.328V48.98l-.774.458V50h6.047v-.563l-1.23-.456V13.578l1.23-.457v-.562h-6.047v.562l.774.457v13.008l-3.516-6.398v-6.61zm27.769 17.649c0-1.782-.351-4.043-1.054-6.786l-2.18-8.261c-.281-1.078-.422-1.899-.422-2.461-.047-.633.164-.996.633-1.09v-.563c-1.711.188-3.176.832-4.395 1.934-1.289 1.148-2.32 2.637-3.093 4.465-1.571 3.797-2.356 7.945-2.356 12.445 0 2.367.41 5.04 1.231 8.016l2.144 8.261c.188.774.281 1.395.281 1.864 0 .726-.211 1.113-.632 1.16v.492c2.015-.469 3.644-1.348 4.886-2.637 1.289-1.265 2.297-2.8 3.024-4.605 1.336-3.89 1.98-7.969 1.933-12.234zm-6.609-16.559c-.234.75-.352 1.676-.352 2.777 0 .82.071 1.594.211 2.32l2.953 12.973c.329 1.57.516 3.75.563 6.54 0 1.57-.234 3.175-.703 4.816-.492 1.687-1.289 3.035-2.391 4.043a7.36 7.36 0 0 0 .422-2.532c0-.867-.211-2.261-.633-4.183l-2.39-10.371a37.895 37.895 0 0 1-.704-7.313c0-3.843 1.008-6.867 3.024-9.07zm21.511-1.16V48.98l-.773.456V50h6.047v-.563l-1.231-.456V13.578l1.231-.457v-.562h-14.063v.562l1.231.457v35.403l-1.231.456V50h6.047v-.563l-.773-.456V13.508h3.515zm16.062 13.078V13.578l.774-.457v-.562h-6.047v.562l1.231.457v35.403l-1.231.456V50h6.047v-.563l-.774-.456V29.328L189.248 23v25.98l-.773.458V50h6.047v-.563l-1.231-.456V13.578l1.231-.457v-.562h-6.047v.562l.773.457v6.61l-3.516 6.398zm22.602 4.71-.211.704.703.492v10.582c-.422-.61-.832-1.16-1.231-1.652a7.936 7.936 0 0 1-1.125-1.652c-.304-.61-.574-1.442-.808-2.497-.234-1.007-.352-2.355-.352-4.043V16.39c0-.82.118-1.546.352-2.18.187-.608.644-.913 1.371-.913.867 0 1.395.328 1.582.984.141.727.211 1.805.211 3.235v1.37l-.633.317v.492h5.309v-.492l-.633-.316v-1.512c0-1.477-.41-2.695-1.231-3.656-.914-.914-2.402-1.371-4.464-1.371-2.157 0-3.692.504-4.606 1.511-.914 1.008-1.348 2.403-1.301 4.184V33.16c0 2.203.551 3.996 1.653 5.38 1.054 1.5 2.355 2.87 3.902 4.112.727.586 1.207 1.114 1.441 1.582.188.493.282 1.067.282 1.723-.047 2.227-1.008 3.363-2.883 3.41-.82 0-1.582-.27-2.285-.808a5.266 5.266 0 0 1-.809-.95 3.267 3.267 0 0 1-.422-.914h.141c.141.516.551.797 1.23.844 1.149 0 1.746-.668 1.793-2.004-.047-1.242-.738-1.887-2.074-1.933-.539 0-.996.234-1.371.703a3.055 3.055 0 0 0-.598 1.863c0 1.36.528 2.367 1.582 3.023.914.727 1.946 1.09 3.094 1.09 2.555-.047 4.36-.761 5.414-2.144 1.008-1.36 1.512-3.047 1.512-5.063V32.492l.703-.562-.281-.633h-4.957zm16.554-17.718.774-.457v-.562h-6.047v.562l1.23.457v35.403l-1.23.456V50h6.047v-.563l-.774-.456V23l3.516 6.328V48.98l-.774.458V50h6.047v-.563l-1.23-.456V13.578l1.23-.457v-.562h-6.047v.562l.774.457v13.008l-3.516-6.398v-6.61zm23.094-1.02V14c-.868-1.102-2.11-1.652-3.727-1.652-.867 0-1.687.316-2.461.949-.914.61-1.371 1.64-1.371 3.094 0 .656.199 1.23.598 1.722.375.563.832.844 1.371.844 1.336-.047 2.027-.691 2.074-1.934-.047-1.335-.645-2.003-1.793-2.003-.727.046-1.137.328-1.23.843l-.211-.07c.375-1.617 1.453-2.45 3.234-2.496 1.055 0 1.922.305 2.602.914.609.68.914 1.5.914 2.46 0 1.056-.329 1.84-.985 2.356-.679.54-1.617 1.043-2.812 1.512a7.354 7.354 0 0 0-2.532 1.371c-.82.68-1.23 1.793-1.23 3.34 0 .89.246 1.77.738 2.637.469.914 1.324 1.37 2.567 1.37 1.172 0 2.062-.257 2.672-.773.632-.445 1.16-1.078 1.582-1.898-1.008 4.852-3.411 7.3-7.207 7.348-.282 0-.563-.094-.844-.282l-.211.739.703.492V48.98l-1.301.458V50h6.117v-.492l-.773-.528V34.005c1.523-.797 2.695-2.18 3.516-4.148V48.98l-.774.528V50h6.047v-.563l-1.23-.456V13.508l1.23-.387v-.562h-5.273zm0 7.067v4.605c-.047.61-.258 1.23-.633 1.864-.492.726-.996 1.09-1.512 1.09-.281.046-.574-.094-.879-.422-.328-.305-.492-.867-.492-1.688v-.633c0-1.054.234-1.851.703-2.39.445-.516 1.031-1.02 1.758-1.512.469-.281.82-.586 1.055-.914zm19.577 12.727V48.98l-.773.456V50h6.047v-.563l-1.231-.456V17.374c.047-3.258-1.922-4.934-5.906-5.027-1.734 0-3.105.386-4.113 1.16-1.055.82-1.582 2.015-1.582 3.586v1.722c0 .961.176 1.735.527 2.32.234.563.563 1.02.984 1.372.446.281.926.492 1.442.633.492.187.949.433 1.371.738.867.422 1.641 1.066 2.32 1.933.61.868.914 1.922.914 3.165-.047 1.734-.644 3.128-1.793 4.183-1.195 1.055-2.613 1.582-4.254 1.582a6.958 6.958 0 0 1-2.144-.351l-.352.773c.329.188.657.281.985.281V48.98l-1.231.458V50h6.047v-.563l-.773-.456V35.233c1.523-.609 2.695-1.57 3.515-2.882zm0-6.61c-.234-.586-.539-1.066-.914-1.441l-1.16-1.09c-.914-.656-1.394-1.594-1.441-2.813v-4.746c0-.562.093-1.02.281-1.37.141-.329.305-.563.492-.704.399-.187.762-.281 1.09-.281.398 0 .785.094 1.16.281.328.281.492.973.492 2.074v10.09zm48.332 2.285V3.347l1.582-.492v-.808h-6.75V3.84c-1.055-1.477-2.637-2.192-4.746-2.145-1.055 0-2.133.41-3.235 1.23-1.101.868-1.675 2.18-1.722 3.938 0 .867.257 1.617.773 2.25.492.727 1.067 1.09 1.723 1.09 1.687-.07 2.578-.914 2.672-2.531-.047-1.688-.821-2.555-2.321-2.602-.89.047-1.418.434-1.582 1.16l-.211-.07c.141-.96.621-1.734 1.442-2.32.773-.563 1.664-.844 2.672-.844 1.336 0 2.437.41 3.304 1.23.821.797 1.231 1.805 1.231 3.024 0 1.055-.235 1.863-.703 2.426-.493.586-.926.972-1.301 1.16-.867.516-1.734.926-2.602 1.23-.961.329-1.804.739-2.531 1.23-.82.47-1.441 1.09-1.863 1.864-.469.774-.703 1.805-.703 3.094-.071 1.195.211 2.344.843 3.445.633 1.102 1.758 1.676 3.375 1.723 1.5 0 2.661-.328 3.481-.985.797-.632 1.465-1.453 2.004-2.46-1.289 6.234-4.36 9.375-9.211 9.421-.492 0-.856-.117-1.09-.351l-.352.879.95.703v18.07l-1.618.492V50h7.805v-.809l-1.019-.492V29.47c.914-.375 1.804-1.09 2.672-2.145a10.14 10.14 0 0 0 1.863-3.234V48.7l-1.582.491V50h8.332v-.809l-1.582-.492V29.47c.914-.375 1.804-1.09 2.672-2.145a10.14 10.14 0 0 0 1.863-3.234V48.7l-.984.491V50h7.769v-.809l-1.582-.492V3.348l1.582-.493v-.808h-7.769v.808l.984.493v16.629c-.75 3.796-2.262 6.48-4.535 8.05zm-5.168-16.91v5.906c-.047.868-.34 1.688-.879 2.461-.281.328-.563.61-.844.844-.328.305-.691.457-1.09.457-.375 0-.738-.176-1.09-.527-.421-.328-.632-1.043-.632-2.145v-.808c0-1.711.48-2.953 1.441-3.727l3.094-2.46zm31.039 1.442V14c-.868-1.102-2.11-1.652-3.727-1.652-.867 0-1.687.316-2.461.949-.914.61-1.371 1.64-1.371 3.094 0 .656.199 1.23.598 1.722.375.563.832.844 1.371.844 1.336-.047 2.027-.691 2.074-1.934-.047-1.335-.645-2.003-1.793-2.003-.727.046-1.137.328-1.23.843l-.211-.07c.375-1.617 1.453-2.45 3.234-2.496 1.055 0 1.922.305 2.602.914.609.68.914 1.5.914 2.46 0 1.056-.329 1.84-.985 2.356-.679.54-1.617 1.043-2.812 1.512a7.354 7.354 0 0 0-2.532 1.371c-.82.68-1.23 1.793-1.23 3.34 0 .89.246 1.77.738 2.637.469.914 1.324 1.37 2.567 1.37 1.172 0 2.062-.257 2.672-.773.632-.445 1.16-1.078 1.582-1.898-1.008 4.852-3.411 7.3-7.207 7.348-.282 0-.563-.094-.844-.282l-.211.739.703.492V48.98l-1.301.458V50h6.117v-.492l-.773-.528V34.005c1.523-.797 2.695-2.18 3.516-4.148V48.98l-.774.528V50h6.047v-.563l-1.23-.456V13.508l1.23-.387v-.562h-5.273zm0 7.066v4.605c-.047.61-.258 1.23-.633 1.864-.492.726-.996 1.09-1.512 1.09-.281.046-.574-.094-.879-.422-.328-.305-.492-.867-.492-1.688v-.633c0-1.054.234-1.851.703-2.39.445-.516 1.031-1.02 1.758-1.512.469-.281.82-.586 1.055-.914zm19.085 11.672-.211.703.703.492v10.582c-.421-.61-.832-1.16-1.23-1.652a7.86 7.86 0 0 1-1.125-1.652c-.305-.61-.574-1.442-.809-2.497-.234-1.007-.351-2.355-.351-4.043V16.39c0-.82.117-1.546.351-2.18.188-.608.645-.913 1.371-.913.868 0 1.395.328 1.582.984.141.727.211 1.805.211 3.235v1.37l-.632.317v.492h5.308v-.492l-.633-.316v-1.512c0-1.477-.41-2.695-1.23-3.656-.914-.914-2.402-1.371-4.465-1.371-2.156 0-3.691.504-4.605 1.511-.914 1.008-1.348 2.403-1.301 4.184V33.16c0 2.203.551 3.996 1.652 5.38 1.055 1.5 2.356 2.87 3.902 4.112.727.586 1.208 1.114 1.442 1.582.187.493.281 1.067.281 1.723-.047 2.227-1.008 3.363-2.883 3.41-.82 0-1.582-.27-2.285-.808a5.22 5.22 0 0 1-.808-.95 3.211 3.211 0 0 1-.422-.914h.14c.141.516.551.797 1.231.844 1.148 0 1.746-.668 1.793-2.004-.047-1.242-.739-1.887-2.074-1.933-.54 0-.997.234-1.372.703a3.054 3.054 0 0 0-.597 1.863c0 1.36.527 2.367 1.582 3.023.914.727 1.945 1.09 3.094 1.09 2.554-.047 4.359-.761 5.414-2.144 1.007-1.36 1.511-3.047 1.511-5.063V32.492l.703-.562-.281-.633h-4.957zm23.832-17.79h3.516c0 1.15-.094 2.544-.282 4.184-.234 1.618-.351 2.743-.351 3.375 0 1.336.304 2.344.914 3.024.539.61 1.172.914 1.898.914 1.149-.047 1.91-.399 2.285-1.055.375-.633.563-1.265.563-1.898 0-.61-.164-1.137-.492-1.582-.328-.375-.856-.563-1.582-.563-1.289.047-1.957.715-2.004 2.004.047 1.266.644 1.922 1.793 1.969v.422c-.539.047-1.067-.14-1.582-.563-.586-.445-.879-1.172-.879-2.18-.047-1.921.316-3.433 1.09-4.535.726-1.101 2.004-2.472 3.832-4.113l-.317-.633-.844.282h-19.16l-.879-.282-.281.633c1.875 1.688 3.199 3.352 3.973 4.992.68 1.664 1.019 3.48 1.019 5.45-.047 1.007-.339 1.734-.879 2.18-.539.421-1.089.609-1.652.562v-.422c1.149-.047 1.746-.692 1.793-1.934-.047-1.312-.691-1.992-1.934-2.039-.632 0-1.136.2-1.511.598-.446.422-.668.95-.668 1.582 0 .61.222 1.23.668 1.863.422.68 1.183 1.043 2.285 1.09 1.734.047 2.672-1.277 2.812-3.973 0-.726-.093-2.144-.281-4.254-.281-2.156-.422-3.855-.422-5.097h3.516V48.98l-1.231.456V50h6.504v-.563l-1.23-.456V13.508zm22.425 17.79-.211.703.704.492v10.582c-.422-.61-.832-1.16-1.231-1.652a7.86 7.86 0 0 1-1.125-1.652c-.305-.61-.574-1.442-.809-2.497-.234-1.007-.351-2.355-.351-4.043v-6.714c.187-.75.445-1.278.773-1.582.305-.188.668-.282 1.09-.282 1.008 0 1.559.774 1.653 2.32l-.633.352v.492h5.308v-.492l-.632-.351v-.739c0-1.195-.387-2.156-1.161-2.882-.726-.75-1.687-1.125-2.882-1.125-2.016.093-3.188.949-3.516 2.566v-8.402c0-.82.117-1.547.351-2.18.188-.61.645-.914 1.372-.914.867 0 1.394.328 1.582.984.14.727.211 1.805.211 3.235v1.37l-.633.317v.492h5.308v-.492l-.632-.316v-1.512c0-1.477-.411-2.695-1.231-3.656-.914-.914-2.402-1.371-4.465-1.371-2.156 0-3.691.504-4.605 1.511-.914 1.008-1.348 2.403-1.301 4.184V33.16c0 2.203.551 3.996 1.652 5.38 1.055 1.5 2.356 2.87 3.903 4.112.726.586 1.207 1.114 1.441 1.582.188.493.281 1.067.281 1.723-.047 2.227-1.008 3.363-2.883 3.41-.82 0-1.582-.27-2.285-.808a5.26 5.26 0 0 1-.808-.95 3.239 3.239 0 0 1-.422-.914h.14c.141.516.551.797 1.231.844 1.148 0 1.746-.668 1.793-2.004-.047-1.242-.738-1.887-2.074-1.933-.539 0-.996.234-1.371.703a3.048 3.048 0 0 0-.598 1.863c0 1.36.527 2.367 1.582 3.023.914.727 1.945 1.09 3.094 1.09 2.554-.047 4.359-.761 5.414-2.144 1.008-1.36 1.512-3.047 1.512-5.063V32.492l.703-.562-.282-.633h-4.957zm16.555 1.195c.187.82 1.101 1.278 2.742 1.371.914 0 1.769-.328 2.566-.984.774-.68 1.184-1.688 1.231-3.023 0-.727-.188-1.36-.563-1.899a2.187 2.187 0 0 0-1.652-.703c-1.406.047-2.109.715-2.109 2.004 0 .68.199 1.16.597 1.441.375.399.809.598 1.301.598.703 0 1.102-.317 1.195-.95l.246.071c-.257 1.64-1.242 2.484-2.953 2.531-1.64-.047-2.507-1.37-2.601-3.972 0-1.243.363-2.297 1.09-3.165.609-.867 1.324-1.511 2.144-1.933.539-.305 1.043-.55 1.512-.738.492-.141.949-.352 1.371-.633.422-.352.785-.809 1.09-1.371.234-.586.351-1.36.351-2.32v-1.723c-.093-3.117-1.992-4.7-5.695-4.746-3.984.093-5.953 1.77-5.906 5.027V48.98l-1.231.458V50h6.504v-.563l-1.23-.456V32.492zm0-6.75v-10.09c0-1.101.211-1.793.633-2.074.351-.187.691-.281 1.019-.281.422 0 .832.094 1.231.281.375.281.586.973.632 2.074v4.746c0 .633-.117 1.16-.351 1.582a4.71 4.71 0 0 1-.949 1.23c-.375.352-.75.716-1.125 1.09a4.25 4.25 0 0 0-1.09 1.442zm22.601 5.555-.211.703.703.492v10.582c-.422-.61-.832-1.16-1.23-1.652a7.86 7.86 0 0 1-1.125-1.652c-.305-.61-.574-1.442-.809-2.497-.234-1.007-.351-2.355-.351-4.043V16.39c0-.82.117-1.546.351-2.18.188-.608.645-.913 1.371-.913.867 0 1.395.328 1.582.984.141.727.211 1.805.211 3.235v1.37l-.633.317v.492h5.309v-.492l-.633-.316v-1.512c0-1.477-.41-2.695-1.23-3.656-.914-.914-2.403-1.371-4.465-1.371-2.156 0-3.692.504-4.606 1.511-.914 1.008-1.347 2.403-1.3 4.184V33.16c0 2.203.55 3.996 1.652 5.38 1.055 1.5 2.355 2.87 3.902 4.112.727.586 1.207 1.114 1.442 1.582.187.493.281 1.067.281 1.723-.047 2.227-1.008 3.363-2.883 3.41-.82 0-1.582-.27-2.285-.808a5.266 5.266 0 0 1-.809-.95 3.236 3.236 0 0 1-.421-.914h.14c.141.516.551.797 1.231.844 1.148 0 1.746-.668 1.793-2.004-.047-1.242-.739-1.887-2.075-1.933-.539 0-.996.234-1.371.703a3.054 3.054 0 0 0-.597 1.863c0 1.36.527 2.367 1.582 3.023.914.727 1.945 1.09 3.093 1.09 2.555-.047 4.36-.761 5.414-2.144 1.008-1.36 1.512-3.047 1.512-5.063V32.492l.703-.562-.281-.633h-4.957zm16.554-5.625V13.578l.774-.457v-.562h-6.047v.562l1.23.457v35.403l-1.23.456V50h6.047v-.563l-.774-.456v-16.7c.821 1.36 1.993 2.344 3.516 2.953V48.98l-.773.528V50h6.046v-.563l-1.23-.456V35.444c.328 0 .668-.093 1.02-.28l-.387-.774a6.74 6.74 0 0 1-2.145.351c-1.64 0-3.035-.527-4.183-1.582-1.243-1.054-1.864-2.45-1.864-4.183 0-1.688.621-3.082 1.864-4.184 1.148-1.055 2.543-1.582 4.183-1.582.821.047 1.535.187 2.145.422l.387-.703a5.792 5.792 0 0 0-1.02-.352v-8.93l1.23-.421v-.668h-6.046v.562l.773.527v9.141c-1.523.563-2.695 1.523-3.516 2.883zm23.094-13.113V14c-.867-1.102-2.11-1.652-3.727-1.652-.867 0-1.687.316-2.461.949-.914.61-1.371 1.64-1.371 3.094 0 .656.199 1.23.598 1.722.375.563.832.844 1.371.844 1.336-.047 2.027-.691 2.074-1.934-.047-1.335-.644-2.003-1.793-2.003-.726.046-1.137.328-1.23.843l-.211-.07c.375-1.617 1.453-2.45 3.234-2.496 1.055 0 1.922.305 2.602.914.609.68.914 1.5.914 2.46 0 1.056-.328 1.84-.985 2.356-.679.54-1.617 1.043-2.812 1.512a7.34 7.34 0 0 0-2.531 1.371c-.821.68-1.231 1.793-1.231 3.34 0 .89.246 1.77.738 2.637.469.914 1.325 1.37 2.567 1.37 1.172 0 2.062-.257 2.672-.773.633-.445 1.16-1.078 1.582-1.898-1.008 4.852-3.41 7.3-7.207 7.348-.281 0-.563-.094-.844-.282l-.211.739.703.492V48.98l-1.301.458V50h6.118v-.492l-.774-.528V34.005c1.524-.797 2.695-2.18 3.516-4.148V48.98l-.774.528V50h6.047v-.563l-1.23-.456V13.508l1.23-.387v-.562h-5.273zm0 7.066v4.605c-.047.61-.258 1.23-.633 1.864-.492.726-.996 1.09-1.512 1.09-.281.046-.574-.094-.879-.422-.328-.305-.492-.867-.492-1.688v-.633c0-1.054.235-1.851.703-2.39.446-.516 1.032-1.02 1.758-1.512.469-.281.82-.586 1.055-.914zm19.578 12.727V48.98l-.774.456V50h6.047v-.563l-1.23-.456V17.374c.046-3.258-1.922-4.934-5.907-5.027-1.734 0-3.105.386-4.113 1.16-1.055.82-1.582 2.015-1.582 3.586v1.722c0 .961.176 1.735.527 2.32.235.563.563 1.02.985 1.372a5.29 5.29 0 0 0 1.441.633c.492.187.949.433 1.371.738.867.422 1.641 1.066 2.321 1.933.609.868.914 1.922.914 3.165-.047 1.734-.645 3.128-1.793 4.183-1.196 1.055-2.614 1.582-4.254 1.582a6.964 6.964 0 0 1-2.145-.351l-.351.773c.328.188.656.281.984.281V48.98l-1.23.458V50h6.046v-.563l-.773-.456V35.233c1.523-.609 2.695-1.57 3.516-2.882zm0-6.61c-.235-.586-.539-1.066-.914-1.441l-1.161-1.09c-.914-.656-1.394-1.594-1.441-2.813v-4.746c0-.562.094-1.02.281-1.37.141-.329.305-.563.492-.704.399-.187.762-.281 1.09-.281.399 0 .785.094 1.16.281.329.281.493.973.493 2.074v10.09z" fill="#fff"/></svg>