<svg width="40" height="40" fill="none" xmlns="http://www.w3.org/2000/svg"><path d="M40 20C40 8.954 31.046 0 20 0S0 8.954 0 20s8.954 20 20 20 20-8.954 20-20z" fill="#000"/><path d="M20 10c-5.5 0-10 4.5-10 10a9.92 9.92 0 0 0 6 9.125c0-.75 0-1.5.125-2.25.25-.875 1.25-5.5 1.25-5.5S17 20.75 17 19.75c0-1.5.875-2.625 1.875-2.625.875 0 1.375.625 1.375 1.5s-.625 2.25-.875 3.5c-.25 1 .5 1.875 1.625 1.875 1.875 0 3.125-2.375 3.125-5.375 0-2.25-1.5-3.875-4.125-3.875-3 0-4.875 2.25-4.875 4.75 0 .875.25 1.5.625 2 .125.25.25.25.125.5 0 .125-.125.625-.25.75-.125.25-.25.375-.5.25-1.375-.625-2-2.125-2-3.875 0-2.875 2.375-6.25 7.125-6.25 3.875 0 6.375 2.75 6.375 5.75 0 3.875-2.125 6.875-5.375 6.875-1.125 0-2.125-.625-2.5-1.25 0 0-.625 2.25-.75 2.75-.25.75-.625 1.5-1 2.125.875.25 1.875.375 2.875.375 5.5 0 10-4.5 10-10C30 14.5 25.5 10 20 10z" fill="#fff"/></svg>