<svg width="28" height="36" fill="none" xmlns="http://www.w3.org/2000/svg"><path d="M2.14 34.924v-10.7c-.405-.229-.972-.79 0-1.215-.86-.582-2.064-2.034 0-3.188l.455-.303.607-.76L3.81 18l.304-.531.076-.228v-.986H3.96v-.228h.228v-3.112H2.823v-.38h1.366v-1.973h.303" stroke="#fff" stroke-width=".5"/><path d="M2.14 34.924v-10.7c-.405-.229-.972-.79 0-1.215-.86-.582-2.064-2.034 0-3.188l.455-.303.607-.76L3.81 18l.304-.531.076-.228v-.986H3.96v-.228h.228v-3.112H2.823v-.38h1.366v-1.973h.303M10.472 28.625V23.13c-.669-.37-1.605-1.28 0-1.968-1.42-.942-3.41-3.294 0-5.163l.752-.492 1.002-1.23 1.003-1.229.502-.86.125-.37v-1.597h-.376v-.37h.376v-5.04H11.6v-.615h2.256V1h.501M21.417 28.625v-4.402c-.405-.227-.972-.79 0-1.214-.86-.582-2.065-2.034 0-3.188l.455-.303.607-.76.607-.758.304-.531.076-.228v-.986h-.228v-.228h.228v-3.112H22.1v-.38h1.366v-1.973h.303" stroke="#fff" stroke-width=".5"/><path d="M6.69 28.625v-4.402c.406-.227.972-.79 0-1.214.86-.582 2.065-2.034 0-3.188l-.455-.303-.607-.76L5.021 18l-.304-.531-.075-.228v-.986h.227v-.228h-.227v-3.112h1.366v-.38H4.642v-1.973h-.304M17.787 28.55v-5.394c.669-.37 1.604-1.28 0-1.97 1.42-.943 3.41-3.299 0-5.17l-.752-.492-1.003-1.23-1.002-1.232-.502-.861-.125-.37v-1.6h.376v-.369h-.376V4.816h2.256V4.2h-2.256V1h-.501M25.967 35V24.223c.405-.227.972-.79 0-1.214.86-.582 2.064-2.034 0-3.188l-.455-.303-.607-.76-.608-.758-.303-.531-.076-.228v-.986h.228v-.228h-.228v-3.112h1.366v-.38h-1.366v-1.973h-.304M2.063 34.924h24.014M6.691 28.549h3.72M17.714 28.549h3.7" stroke="#fff" stroke-width=".5"/></svg>