<svg width="50" height="50" fill="none" xmlns="http://www.w3.org/2000/svg"><rect width="50" height="50" rx="25" fill="#07F"/><path d="M26.228 33.75c-9.396 0-14.755-6.57-14.978-17.5h4.706c.155 8.023 3.625 11.421 6.373 12.122V16.25h4.432v6.92c2.713-.298 5.565-3.452 6.527-6.92h4.431a13.486 13.486 0 0 1-2.122 5.003 13.194 13.194 0 0 1-3.907 3.72 13.618 13.618 0 0 1 4.453 3.617 13.94 13.94 0 0 1 2.607 5.16h-4.878a8.676 8.676 0 0 0-2.63-4.221 8.409 8.409 0 0 0-4.481-2.033v6.254h-.533z" fill="#fff"/></svg>